<svg width="16" height="17" viewBox="0 0 16 17" fill="none" xmlns="http://www.w3.org/2000/svg">
    <path
        d="M7.99992 3.40267V7.83601H12.9613L11.8133 6.68667C11.7284 6.60197 11.6768 6.48961 11.6679 6.37005C11.6589 6.25049 11.6933 6.13171 11.7646 6.03534L11.8133 5.97934C11.898 5.89476 12.0103 5.8434 12.1297 5.83459C12.2491 5.82578 12.3677 5.86011 12.4639 5.93134L12.5199 5.97934L14.5179 7.97801C14.6026 8.06266 14.6541 8.1749 14.663 8.29431C14.6719 8.41371 14.6377 8.53236 14.5666 8.62867L14.5179 8.68467L12.5206 10.6867C12.4314 10.7755 12.3119 10.8275 12.1861 10.8321C12.0602 10.8367 11.9373 10.7936 11.8418 10.7115C11.7463 10.6294 11.6853 10.5143 11.671 10.3892C11.6567 10.2641 11.6901 10.1382 11.7646 10.0367L11.8126 9.98067L12.9546 8.83601H8.00059L7.99992 13.3333C7.99986 13.4063 7.98382 13.4784 7.95295 13.5445C7.92208 13.6106 7.87711 13.6691 7.82121 13.716C7.7653 13.7629 7.69981 13.797 7.62934 13.8159C7.55886 13.8348 7.48511 13.838 7.41325 13.8253L1.74659 12.8247C1.63075 12.8043 1.5258 12.7437 1.45021 12.6536C1.37461 12.5635 1.3332 12.4496 1.33325 12.332V4.33334C1.33325 4.21483 1.37535 4.10018 1.45203 4.00982C1.52871 3.91947 1.63499 3.85928 1.75192 3.84001L7.41859 2.90934C7.49016 2.89754 7.56345 2.90145 7.63336 2.92081C7.70327 2.94017 7.76813 2.97451 7.82344 3.02145C7.87875 3.06839 7.92318 3.1268 7.95366 3.19263C7.98413 3.25846 7.99992 3.33013 7.99992 3.40267ZM5.66792 8.16601C5.49067 8.16601 5.32067 8.23642 5.19534 8.36176C5.07 8.48709 4.99958 8.65709 4.99958 8.83434C4.99958 9.01159 5.07 9.18159 5.19534 9.30692C5.32067 9.43226 5.49067 9.50267 5.66792 9.50267C5.84517 9.50267 6.01516 9.43226 6.1405 9.30692C6.26584 9.18159 6.33625 9.01159 6.33625 8.83434C6.33625 8.65709 6.26584 8.48709 6.1405 8.36176C6.01516 8.23642 5.84517 8.16601 5.66792 8.16601ZM8.66658 12.8347H9.17659L9.24458 12.83C9.3644 12.8136 9.47419 12.7542 9.55363 12.663C9.63306 12.5718 9.67674 12.4549 9.67659 12.334L9.67192 9.50067H8.66658V12.8347ZM8.66792 7.16667L8.66658 6.31667V3.83334H9.16325C9.28398 3.83332 9.40063 3.87698 9.49168 3.95627C9.58272 4.03555 9.642 4.14509 9.65858 4.26467L9.66325 4.33201L9.66792 7.16667H8.66792Z"
        fill="black" />
</svg>