<svg width="16" height="17" viewBox="0 0 16 17" fill="none" xmlns="http://www.w3.org/2000/svg">
    <path
        d="M4.85721 7.07144C4.70566 7.07144 4.56032 7.13164 4.45315 7.23881C4.34599 7.34597 4.28578 7.49131 4.28578 7.64287C4.28578 7.79442 4.34599 7.93976 4.45315 8.04693C4.56032 8.15409 4.70566 8.21429 4.85721 8.21429C5.00876 8.21429 5.15411 8.15409 5.26127 8.04693C5.36844 7.93976 5.42864 7.79442 5.42864 7.64287C5.42864 7.49131 5.36844 7.34597 5.26127 7.23881C5.15411 7.13164 5.00876 7.07144 4.85721 7.07144ZM4.28578 11.6429C4.28578 11.4913 4.34599 11.346 4.45315 11.2388C4.56032 11.1316 4.70566 11.0714 4.85721 11.0714C5.00876 11.0714 5.15411 11.1316 5.26127 11.2388C5.36844 11.346 5.42864 11.4913 5.42864 11.6429C5.42864 11.7944 5.36844 11.9398 5.26127 12.0469C5.15411 12.1541 5.00876 12.2143 4.85721 12.2143C4.70566 12.2143 4.56032 12.1541 4.45315 12.0469C4.34599 11.9398 4.28578 11.7944 4.28578 11.6429ZM1.71436 4.35715C1.71436 3.78883 1.94012 3.24379 2.34198 2.84192C2.74385 2.44006 3.28889 2.21429 3.85721 2.21429H12.1429C12.7112 2.21429 13.2563 2.44006 13.6582 2.84192C14.06 3.24379 14.2858 3.78883 14.2858 4.35715V12.6429C14.2858 13.2112 14.06 13.7562 13.6582 14.1581C13.2563 14.56 12.7112 14.7857 12.1429 14.7857H3.85721C3.28889 14.7857 2.74385 14.56 2.34198 14.1581C1.94012 13.7562 1.71436 13.2112 1.71436 12.6429V4.35715ZM3.42864 7.64287C3.42864 8.02175 3.57915 8.38511 3.84706 8.65302C4.11497 8.92093 4.47833 9.07144 4.85721 9.07144C5.23609 9.07144 5.59946 8.92093 5.86737 8.65302C6.13527 8.38511 6.28578 8.02175 6.28578 7.64287C6.28578 7.26399 6.13527 6.90062 5.86737 6.63271C5.59946 6.3648 5.23609 6.21429 4.85721 6.21429C4.47833 6.21429 4.11497 6.3648 3.84706 6.63271C3.57915 6.90062 3.42864 7.26399 3.42864 7.64287ZM4.85721 10.2143C4.47833 10.2143 4.11497 10.3648 3.84706 10.6327C3.57915 10.9006 3.42864 11.264 3.42864 11.6429C3.42864 12.0217 3.57915 12.3851 3.84706 12.653C4.11497 12.9209 4.47833 13.0714 4.85721 13.0714C5.23609 13.0714 5.59946 12.9209 5.86737 12.653C6.13527 12.3851 6.28578 12.0217 6.28578 11.6429C6.28578 11.264 6.13527 10.9006 5.86737 10.6327C5.59946 10.3648 5.23609 10.2143 4.85721 10.2143ZM7.42864 7.50001C7.42864 7.73658 7.62064 7.92858 7.85721 7.92858H12.1429C12.2566 7.92858 12.3656 7.88343 12.446 7.80305C12.5263 7.72268 12.5715 7.61367 12.5715 7.50001C12.5715 7.38634 12.5263 7.27734 12.446 7.19696C12.3656 7.11659 12.2566 7.07144 12.1429 7.07144H7.85721C7.74355 7.07144 7.63454 7.11659 7.55417 7.19696C7.47379 7.27734 7.42864 7.38634 7.42864 7.50001ZM7.85721 11.0714C7.74355 11.0714 7.63454 11.1166 7.55417 11.197C7.47379 11.2773 7.42864 11.3863 7.42864 11.5C7.42864 11.6137 7.47379 11.7227 7.55417 11.8031C7.63454 11.8834 7.74355 11.9286 7.85721 11.9286H12.1429C12.2566 11.9286 12.3656 11.8834 12.446 11.8031C12.5263 11.7227 12.5715 11.6137 12.5715 11.5C12.5715 11.3863 12.5263 11.2773 12.446 11.197C12.3656 11.1166 12.2566 11.0714 12.1429 11.0714H7.85721ZM3.42864 4.35715C3.42864 4.59372 3.62064 4.78572 3.85721 4.78572H12.1429C12.2566 4.78572 12.3656 4.74057 12.446 4.6602C12.5263 4.57982 12.5715 4.47082 12.5715 4.35715C12.5715 4.24349 12.5263 4.13448 12.446 4.05411C12.3656 3.97373 12.2566 3.92858 12.1429 3.92858H3.85721C3.74355 3.92858 3.63454 3.97373 3.55417 4.05411C3.47379 4.13448 3.42864 4.24349 3.42864 4.35715Z"
        fill="black" />
</svg>