<svg width="16" height="17" viewBox="0 0 16 17" fill="none" xmlns="http://www.w3.org/2000/svg">
<path d="M11.9999 9.64285C12.4546 9.64285 12.8906 9.82346 13.2121 10.145C13.5336 10.4664 13.7142 10.9025 13.7142 11.3571V11.7657C13.7142 13.8097 11.3085 15.3571 7.99993 15.3571C4.69136 15.3571 2.28564 13.8903 2.28564 11.7657V11.3571C2.28564 10.9025 2.46626 10.4664 2.78775 10.145C3.10924 9.82346 3.54527 9.64285 3.99993 9.64285H11.9999ZM7.99993 1.64285C8.45018 1.64285 8.89601 1.73154 9.31199 1.90384C9.72796 2.07614 10.1059 2.32869 10.4243 2.64706C10.7427 2.96543 10.9952 3.34339 11.1675 3.75937C11.3398 4.17534 11.4285 4.62118 11.4285 5.07142C11.4285 5.52167 11.3398 5.96751 11.1675 6.38348C10.9952 6.79946 10.7427 7.17742 10.4243 7.49579C10.1059 7.81416 9.72796 8.06671 9.31199 8.23901C8.89601 8.41131 8.45018 8.5 7.99993 8.5C7.09062 8.5 6.21855 8.13877 5.57556 7.49579C4.93258 6.85281 4.57136 5.98074 4.57136 5.07142C4.57136 4.16211 4.93258 3.29004 5.57556 2.64706C6.21855 2.00408 7.09062 1.64285 7.99993 1.64285Z" fill="black"/>
</svg>
